# xmcd
#
# Track frame offsets: 
#        150
#        17710
#        32477
#        51477
#        71515
#        82952
#        99390
#        114910
#        133575
#        147975
#        165270
#        171297
#
# Disc length: 2562 seconds
#
# Revision: 2
# Processed by: cddbd v1.5.2PL0 Copyright (c) Steve Scherf et al.
# Submitted via: ExactAudioCopy v1.0b3
#
DISCID=950a000c
DTITLE=Roger Daltrey - Daltrey [Remastered]
DYEAR=1973
DGENRE=Rock
TTITLE0=One Man Band
TTITLE1=The Way Of The World
TTITLE2=You Are Yourself
TTITLE3=Thinking
TTITLE4=You And Me
TTITLE5=It's A Hard Life
TTITLE6=Giving It All Away
TTITLE7=The Story So Far
TTITLE8=When The Music Stops
TTITLE9=Reasons
TTITLE10=One Man Band [Reprise]
TTITLE11=There Is Love
EXTD=
EXTT0=
EXTT1=
EXTT2=
EXTT3=
EXTT4=
EXTT5=
EXTT6=
EXTT7=
EXTT8=
EXTT9=
EXTT10=
EXTT11=
PLAYORDER=
